<svg width="22" height="22" viewBox="0 0 22 22" fill="none" xmlns="http://www.w3.org/2000/svg">
<path d="M11 21.9999C17.0751 21.9999 22 17.0751 22 11C22 4.92486 17.0751 0 11 0C4.92487 0 0 4.92486 0 11C0 17.0751 4.92487 21.9999 11 21.9999Z" fill="#1977F3"/>
<path d="M15.2818 14.1803L15.7691 10.9998H12.7186V8.93629C12.7186 8.06693 13.144 7.21769 14.5114 7.21769H15.899V4.51062C15.899 4.51062 14.6398 4.2956 13.4363 4.2956C10.9242 4.2956 9.28137 5.81775 9.28137 8.57586V10.9998H6.48767V14.1803H9.28137V21.8668C9.84135 21.955 10.4152 21.9998 11 21.9998C11.5847 21.9998 12.1586 21.9534 12.7186 21.8668V14.1803H15.2818Z" fill="white"/>
</svg>
