<svg width="62" height="62" viewBox="0 0 62 62" fill="none" xmlns="http://www.w3.org/2000/svg">
<circle cx="31" cy="31" r="29" fill="#F29A2E" stroke="white" stroke-width="4"/>
<path fill-rule="evenodd" clip-rule="evenodd" d="M37.1739 23.6957H39.1957C40.3122 23.6957 41.2174 24.6008 41.2174 25.7174V39.1957C41.2174 40.3122 40.3122 41.2174 39.1957 41.2174H23.0217C21.9052 41.2174 21 40.3122 21 39.1957V25.7174C21 24.6008 21.9052 23.6957 23.0217 23.6957H25.0435V21H26.3913V23.6957H35.8261V21H37.1739V23.6957ZM29.087 31.7826H25.0435V30.4348H29.087V31.7826ZM37.1739 30.4348H33.1304V31.7826H37.1739V30.4348ZM29.087 35.8261H25.0435V34.4783H29.087V35.8261ZM33.1304 35.8261H37.1739V34.4783H33.1304V35.8261Z" fill="white"/>
</svg>
