<svg width="65" height="65" viewBox="0 0 65 65" fill="none" xmlns="http://www.w3.org/2000/svg">
<circle cx="32.3432" cy="32.4083" r="30.284" fill="#E4EAF2" stroke="#F6F9FF" stroke-width="4"/>
<path fill-rule="evenodd" clip-rule="evenodd" d="M37.9579 23.9864H40.0633C41.2262 23.9864 42.1688 24.929 42.1688 26.0919V40.1284C42.1688 41.2912 41.2262 42.2339 40.0633 42.2339H23.2195C22.0567 42.2339 21.114 41.2912 21.114 40.1284V26.0919C21.114 24.929 22.0567 23.9864 23.2195 23.9864H25.325V21.1791H26.7286V23.9864H36.5542V21.1791H37.9579V23.9864ZM29.5359 32.4083H25.325V31.0046H29.5359V32.4083ZM37.9579 31.0046H33.7469V32.4083H37.9579V31.0046ZM29.5359 36.6193H25.325V35.2156H29.5359V36.6193ZM33.7469 36.6193H37.9579V35.2156H33.7469V36.6193Z" fill="#ABB5C2"/>
</svg>
