<svg width="8" height="9" viewBox="0 0 8 9" fill="none" xmlns="http://www.w3.org/2000/svg">
<path d="M4.12904 0.550781C3.3937 0.550781 2.67487 0.79571 2.06345 1.2546C1.45203 1.71348 0.975492 2.36571 0.694087 3.12881C0.412683 3.89191 0.339054 4.7316 0.482513 5.5417C0.625972 6.3518 0.980074 7.09592 1.50004 7.67997C2.02001 8.26402 2.68249 8.66177 3.4037 8.82291C4.12492 8.98405 4.87248 8.90134 5.55185 8.58526C6.23122 8.26917 6.81189 7.7339 7.22042 7.04713C7.62896 6.36036 7.84701 5.55294 7.84701 4.72697C7.84545 3.61991 7.45323 2.55871 6.75632 1.7759C6.0594 0.993096 5.11463 0.552541 4.12904 0.550781V0.550781ZM3.41389 2.04615L3.58739 2.10128V1.84461L3.65509 1.77331L3.72788 1.93112L3.86583 2.12125L3.80997 2.20776L3.58739 2.26479V2.10984L3.41389 2.26194L3.36311 2.17543L3.41389 2.04615ZM0.736068 4.6338C0.752108 3.8538 0.982382 3.09842 1.39537 2.47108C1.40313 2.47217 1.41078 2.47408 1.41822 2.47679C1.41822 2.53383 1.34882 2.54809 1.41822 2.69259C1.50708 2.88271 1.43091 2.96542 1.43091 2.96542C1.43091 2.96542 1.2134 3.13749 1.17701 3.16696C1.14062 3.19643 1.03652 3.35709 1.09999 3.3105C1.16347 3.26392 1.24049 3.224 1.17701 3.33902C1.11354 3.45405 0.997587 3.64133 0.972197 3.71263C0.946807 3.78393 0.819009 3.95694 0.819009 4.04345C0.800824 4.15284 0.788109 4.26329 0.780924 4.37428C0.780467 4.46317 0.765255 4.55118 0.736068 4.6338ZM2.05805 7.03513L2.00642 7.24998L2.05805 7.42205C2.0224 7.45576 1.98 7.47925 1.93449 7.49049C1.88709 7.49049 1.87101 7.52376 1.81938 7.50855C1.32175 6.99061 0.973623 6.31714 0.819856 5.57494C0.847586 5.58547 0.872782 5.60304 0.893487 5.62628C0.934156 5.6701 0.982209 5.70436 1.03483 5.72704C1.0983 5.75651 1.12454 5.79834 1.20409 5.84207C1.28365 5.8858 1.25572 5.85728 1.35728 5.98657C1.41196 6.03968 1.45191 6.1093 1.47238 6.18716C1.4966 6.25372 1.52666 6.31741 1.5621 6.37729C1.58749 6.42102 1.6645 6.44954 1.70259 6.47805C1.74468 6.50942 1.79286 6.52898 1.84308 6.53509C1.88201 6.53509 1.99711 6.66438 2.06059 6.67864C2.12407 6.6929 2.12491 6.8374 2.12491 6.8374L2.05805 7.03513ZM2.56585 1.48527C2.50587 1.54822 2.44935 1.61521 2.39659 1.68585C2.37019 1.74429 2.33047 1.79382 2.28148 1.8294C2.22893 1.87062 2.18526 1.92454 2.15369 1.98721L2.01235 2.04424L1.89725 1.98721C1.89725 1.98721 1.79399 2.03094 1.80753 1.97295C1.81181 1.95679 1.81689 1.94092 1.82277 1.92541C2.13811 1.59721 2.50599 1.33915 2.90693 1.1649C2.86715 1.22194 2.8223 1.28088 2.8223 1.28088C2.8223 1.28088 2.73682 1.28373 2.57009 1.48527H2.56585ZM6.47425 6.64727C6.46071 6.70431 6.43617 6.80508 6.42347 6.86307C6.40051 6.93989 6.36097 7.00913 6.30837 7.0646C6.27028 7.09312 6.20596 7.17963 6.16788 7.19389C6.12979 7.20815 6.10355 7.09312 6.11625 7.03513C6.13864 6.96178 6.16435 6.88975 6.19327 6.81934C6.19327 6.81934 6.20596 6.73283 6.21866 6.67579C6.23135 6.61875 6.38792 6.5465 6.38792 6.5465L6.48779 6.3307C6.49499 6.36374 6.49924 6.39749 6.50049 6.43147C6.49682 6.50407 6.48805 6.57623 6.47425 6.64727V6.64727ZM6.51234 5.29545C6.48695 5.33823 6.40993 5.45326 6.371 5.5103C6.3228 5.58987 6.26594 5.66236 6.20173 5.72609C6.12471 5.79834 6.12471 5.86964 6.08663 5.92763C6.0522 5.98818 6.0222 6.05177 5.99692 6.11776C5.99692 6.11776 6.02231 6.40295 6.035 6.46284C6.0477 6.52273 5.94529 6.67769 5.94529 6.67769L5.83019 6.80698L5.67615 7.03703L5.68885 7.25188C5.68885 7.25188 5.5729 7.35265 5.50858 7.41064C5.44426 7.46863 5.45526 7.51141 5.40363 7.5694C5.33351 7.64133 5.25312 7.6995 5.16581 7.74146C5.11503 7.75572 4.89752 7.7985 4.89752 7.7985V7.66731L4.82643 7.52376C4.79422 7.44449 4.75746 7.36764 4.7164 7.29371C4.67832 7.23667 4.67832 7.15016 4.614 7.07791C4.56678 7.03011 4.52975 6.97097 4.50567 6.90489C4.50189 6.84615 4.50646 6.78711 4.51921 6.72998C4.51921 6.72998 4.56829 6.57122 4.59453 6.51418C4.60276 6.48032 4.60461 6.4449 4.59995 6.4102C4.59528 6.37549 4.58421 6.34226 4.56745 6.31264C4.54346 6.23394 4.53061 6.1515 4.52936 6.06833C4.52936 6.02555 4.42611 5.95235 4.38802 5.90957C4.34994 5.86679 4.36263 5.8088 4.36263 5.75176C4.34591 5.65784 4.33713 5.56235 4.3364 5.46657C4.34909 5.3658 4.2213 5.4371 4.14512 5.46657C4.06895 5.49604 4.01733 5.4371 4.01733 5.35059C4.01733 5.26408 3.87683 5.33633 3.78712 5.39337C3.69115 5.43555 3.5924 5.46925 3.49175 5.49414C3.46572 5.50783 3.43629 5.51105 3.4084 5.50326C3.38051 5.49547 3.35585 5.47715 3.33856 5.45136C3.28999 5.40466 3.23883 5.36148 3.18538 5.32207C3.11636 5.26647 3.05578 5.19874 3.00595 5.12148C2.92549 5.00872 2.86098 4.88271 2.81468 4.74788C2.80822 4.66629 2.80822 4.58421 2.81468 4.50261C2.81178 4.42564 2.81604 4.34854 2.82737 4.27256C2.8463 4.19104 2.87658 4.1134 2.91709 4.0425C2.97961 3.9659 3.05313 3.90163 3.13459 3.85237C3.17268 3.82385 3.26239 3.73734 3.26239 3.68031C3.26239 3.62327 3.31402 3.5938 3.33941 3.53676C3.3648 3.47972 3.45451 3.33617 3.57046 3.39321C3.61778 3.38708 3.66471 3.37756 3.71095 3.36469C3.77604 3.33972 3.83989 3.31085 3.90222 3.27818C3.95991 3.25555 4.01991 3.24118 4.0808 3.2354C4.12541 3.25617 4.17198 3.27116 4.2196 3.28008C4.25769 3.28008 4.38295 3.25537 4.38295 3.25537C4.40685 3.33789 4.42607 3.42203 4.4405 3.50729C4.4405 3.55102 4.47858 3.5938 4.54375 3.62232C4.60892 3.65084 4.90175 3.72308 5.0304 3.60806C5.06002 3.58144 5.15819 3.65084 5.15819 3.65084C5.28464 3.67632 5.40873 3.71482 5.52889 3.76586C5.58052 3.80959 5.67023 3.83811 5.69816 3.88184C5.74536 3.9502 5.78807 4.02232 5.82595 4.09764C5.8395 4.14042 5.90297 4.29918 5.91651 4.35621C5.9369 4.45063 5.96671 4.54215 6.00538 4.62905C6.04346 4.7013 6.25928 5.01691 6.33799 5.16141L6.56904 5.11863C6.55609 5.17977 6.53707 5.23908 6.51234 5.29545V5.29545ZM7.44331 4.74978C7.43062 4.69179 7.3536 4.49026 7.3536 4.49026C7.31793 4.43521 7.27481 4.38677 7.2258 4.34671C7.17502 4.31819 7.13609 4.24594 7.04638 4.1889C6.98791 4.13788 6.91715 4.10774 6.84326 4.10239C6.76624 4.10239 6.69007 3.98736 6.59951 3.92937C6.50895 3.87139 6.4971 3.90086 6.4971 3.90086C6.53919 3.96766 6.5736 4.04016 6.59951 4.11665C6.59951 4.15943 6.71461 4.23168 6.83056 4.20316C6.86381 4.27386 6.90231 4.34128 6.94566 4.4047C6.98375 4.44748 6.93297 4.49121 6.85595 4.54824C6.8178 4.57099 6.78298 4.60017 6.7527 4.63475C6.68749 4.68791 6.61905 4.73588 6.54788 4.7783C6.5098 4.80682 6.35576 4.89333 6.27959 4.80682C6.24151 4.76499 6.25336 4.67753 6.22881 4.61669C6.20427 4.55585 5.93429 4.1138 5.80564 3.91226C5.77404 3.84957 5.73535 3.79174 5.69054 3.7402C5.65246 3.71073 5.78025 3.71073 5.78025 3.71073C5.77997 3.65305 5.77544 3.5955 5.76671 3.53866C5.7612 3.48086 5.7658 3.42241 5.78025 3.36659C5.78025 3.36659 5.65246 3.4531 5.61098 3.48162C5.56951 3.51014 5.53989 3.42648 5.48911 3.35423C5.43644 3.28775 5.39718 3.20928 5.37401 3.12418C5.36131 3.05288 5.43833 3.02341 5.43833 3.02341L5.55343 2.95211C5.62962 2.93658 5.70724 2.93179 5.78448 2.93785C5.8742 2.95211 6.01469 2.96637 6.01469 2.96637C6.01469 2.96637 6.05277 2.8656 6.00115 2.82282C5.94952 2.78004 5.83188 2.7078 5.78364 2.72205C5.7354 2.73631 5.80903 2.64981 5.8725 2.59277L5.73116 2.56425C5.73116 2.56425 5.60252 2.6365 5.5619 2.65076C5.5008 2.67103 5.44635 2.71103 5.40532 2.76578C5.35454 2.83803 5.42564 2.93785 5.37486 2.96732C5.33491 2.99027 5.29328 3.00936 5.25044 3.02436C5.19733 3.03184 5.1436 3.03184 5.09049 3.02436C4.95846 3.02436 5.04309 3.1603 5.07694 3.20783L4.97454 3.06714L4.89837 2.8656C4.89837 2.8656 4.78919 2.77909 4.73841 2.75057C4.68763 2.72205 4.52936 2.62129 4.52936 2.62129L4.54037 2.75057L4.68847 2.91884H4.70202L4.79257 3.03387L4.636 3.04813V2.9388C4.37364 2.89507 4.50397 2.85039 4.4862 2.83613L4.35417 2.73727C4.35417 2.73727 4.20014 2.76578 4.16121 2.781C4.12227 2.79621 4.11042 2.83803 4.03425 2.8675C3.97736 2.88577 3.92833 2.92665 3.8963 2.98253C3.84779 3.06328 3.79434 3.14015 3.73634 3.21259C3.68472 3.27058 3.58908 3.25537 3.55015 3.25537C3.47448 3.24115 3.3996 3.22211 3.32587 3.19833V2.95211C3.33822 2.8933 3.3425 2.83271 3.33856 2.77244L3.45113 2.75153L3.63817 2.7078L3.69318 2.66407L3.77273 2.54714C3.76092 2.53778 3.75088 2.52587 3.74323 2.51209C3.73557 2.49831 3.73045 2.48295 3.72816 2.46692C3.72588 2.45088 3.72647 2.43449 3.72991 2.41872C3.73335 2.40294 3.73957 2.3881 3.74819 2.37507C3.77866 2.32659 3.88953 2.31803 3.94031 2.2743C3.98008 2.24379 4.02336 2.21949 4.06895 2.20205C4.06895 2.20205 4.15867 2.11554 4.24838 2.01192C4.29322 1.98477 4.34026 1.96249 4.38887 1.94538C4.46633 2.02738 4.55146 2.09974 4.64277 2.16117C4.70624 2.13652 4.76656 2.10265 4.8222 2.06041C4.84004 2.0053 4.84864 1.94696 4.84759 1.88834C4.83489 1.84556 4.77057 1.69821 4.77057 1.69821C4.77057 1.69821 4.73248 1.77046 4.6944 1.8275C4.66882 1.86783 4.64725 1.91118 4.63008 1.95679C4.63008 1.95679 4.45065 1.94253 4.43796 1.89975C4.42526 1.85697 4.40157 1.78662 4.38887 1.74574C4.37618 1.70486 4.27377 1.70391 4.1976 1.73243C4.12143 1.76095 4.21029 1.57748 4.21029 1.57748C4.21029 1.57748 4.28731 1.4691 4.33809 1.4691C4.41335 1.44641 4.48692 1.41717 4.55814 1.38165C4.6434 1.33145 4.7323 1.28947 4.82389 1.25616C4.88821 1.25616 4.96523 1.24285 5.00331 1.24285H5.19459L5.46372 1.26281C5.46372 1.26281 5.69477 1.38069 5.61691 1.43868C5.66167 1.47497 5.70462 1.51401 5.74555 1.55561C5.7811 1.59649 5.8742 1.52424 5.92752 1.49002C6.41587 1.83263 6.81875 2.30894 7.09838 2.87428C7.37802 3.43962 7.52524 4.07548 7.52625 4.72221C7.52625 4.79541 7.52033 4.86766 7.51694 4.93991C7.49155 4.87432 7.45601 4.78686 7.4467 4.74978H7.44331Z" fill="#90949C"/>
</svg>
