<svg width="8" height="10" viewBox="0 0 8 10" fill="none" xmlns="http://www.w3.org/2000/svg">
<path d="M4.18956 0.137207C3.45422 0.137207 2.73538 0.412075 2.12397 0.927051C1.51255 1.44203 1.03601 2.17398 0.754603 3.03036C0.473199 3.88673 0.399571 4.82906 0.54303 5.73819C0.686488 6.64731 1.04059 7.48239 1.56056 8.13783C2.08053 8.79327 2.743 9.23963 3.46422 9.42047C4.18544 9.6013 4.933 9.50849 5.61237 9.15377C6.29174 8.79905 6.8724 8.19835 7.28094 7.42763C7.68948 6.65691 7.90753 5.7508 7.90753 4.82386C7.90596 3.58149 7.51375 2.39057 6.81683 1.51208C6.11992 0.633588 5.17515 0.139182 4.18956 0.137207V0.137207ZM3.4744 1.81536L3.6479 1.87723V1.58919L3.71561 1.50917L3.7884 1.68627L3.92635 1.89964L3.87049 1.99672L3.6479 2.06073V1.88684L3.4744 2.05753L3.42362 1.96045L3.4744 1.81536ZM0.796584 4.71931C0.812624 3.84396 1.0429 2.99625 1.45588 2.29224C1.46364 2.29345 1.4713 2.2956 1.47873 2.29864C1.47873 2.36265 1.40933 2.37865 1.47873 2.54081C1.5676 2.75418 1.49143 2.847 1.49143 2.847C1.49143 2.847 1.27392 3.0401 1.23753 3.07317C1.20113 3.10624 1.09703 3.28654 1.16051 3.23426C1.22399 3.18199 1.301 3.13718 1.23753 3.26627C1.17405 3.39536 1.0581 3.60552 1.03271 3.68554C1.00732 3.76555 0.879526 3.95972 0.879526 4.0568C0.86134 4.17956 0.848625 4.30351 0.84144 4.42806C0.840983 4.52782 0.825771 4.62659 0.796584 4.71931ZM2.11857 7.41417L2.06694 7.65527L2.11857 7.84837C2.08292 7.88621 2.04052 7.91257 1.995 7.92519C1.94761 7.92519 1.93153 7.96253 1.8799 7.94546C1.38227 7.36421 1.03414 6.60842 0.880372 5.77549C0.908102 5.78731 0.933298 5.80702 0.954003 5.8331C0.994672 5.88228 1.04273 5.92073 1.09534 5.94619C1.15882 5.97926 1.18505 6.0262 1.26461 6.07527C1.34417 6.12435 1.31624 6.09234 1.4178 6.23744C1.47247 6.29703 1.51242 6.37516 1.5329 6.46254C1.55712 6.53724 1.58717 6.60871 1.62261 6.67591C1.648 6.72498 1.72502 6.75699 1.7631 6.789C1.8052 6.82419 1.85338 6.84614 1.9036 6.85301C1.94253 6.85301 2.05763 6.9981 2.12111 7.0141C2.18458 7.0301 2.18543 7.19226 2.18543 7.19226L2.11857 7.41417ZM2.62637 1.18592C2.56639 1.25657 2.50986 1.33174 2.4571 1.41102C2.4307 1.4766 2.39099 1.53218 2.342 1.57212C2.28944 1.61837 2.24577 1.67889 2.2142 1.74921L2.07286 1.81322L1.95776 1.74921C1.95776 1.74921 1.85451 1.79829 1.86805 1.73321C1.87232 1.71508 1.87741 1.69727 1.88328 1.67987C2.19863 1.31155 2.56651 1.02194 2.96745 0.82639C2.92767 0.890401 2.88281 0.956545 2.88281 0.956545C2.88281 0.956545 2.79733 0.959746 2.6306 1.18592H2.62637ZM6.53477 6.97889C6.52123 7.0429 6.49668 7.15599 6.48399 7.22107C6.46103 7.30729 6.42148 7.38499 6.36889 7.44724C6.3308 7.47924 6.26648 7.57633 6.22839 7.59233C6.19031 7.60833 6.16407 7.47924 6.17677 7.41417C6.19916 7.33184 6.22486 7.25102 6.25378 7.17199C6.25378 7.17199 6.26648 7.07491 6.27917 7.0109C6.29187 6.94689 6.44844 6.86581 6.44844 6.86581L6.54831 6.62363C6.55551 6.6607 6.55976 6.69859 6.561 6.73672C6.55734 6.81819 6.54856 6.89917 6.53477 6.97889V6.97889ZM6.57285 5.46184C6.54746 5.50985 6.47045 5.63893 6.43151 5.70295C6.38332 5.79224 6.32645 5.8736 6.26225 5.94512C6.18523 6.0262 6.18523 6.10621 6.14714 6.17129C6.11272 6.23925 6.08272 6.3106 6.05743 6.38466C6.05743 6.38466 6.08282 6.70471 6.09552 6.77193C6.10821 6.83914 6.00581 7.01303 6.00581 7.01303L5.8907 7.15812L5.73667 7.4163L5.74936 7.65741C5.74936 7.65741 5.63342 7.77049 5.56909 7.83557C5.50477 7.90065 5.51577 7.94866 5.46415 8.01373C5.39403 8.09446 5.31363 8.15974 5.22633 8.20683C5.17555 8.22284 4.95804 8.27084 4.95804 8.27084V8.12362L4.88694 7.96253C4.85473 7.87356 4.81798 7.78732 4.77692 7.70435C4.73883 7.64034 4.73883 7.54326 4.67451 7.46218C4.62729 7.40853 4.59026 7.34217 4.56618 7.26801C4.56241 7.20208 4.56698 7.13582 4.57972 7.07171C4.57972 7.07171 4.62881 6.89355 4.65505 6.82953C4.66328 6.79154 4.66513 6.75179 4.66046 6.71284C4.6558 6.67389 4.64473 6.6366 4.62796 6.60336C4.60398 6.51504 4.59113 6.42252 4.58988 6.32918C4.58988 6.28118 4.48663 6.19903 4.44854 6.15102C4.41045 6.10301 4.42315 6.03794 4.42315 5.97392C4.40643 5.86852 4.39765 5.76136 4.39691 5.65387C4.40961 5.54078 4.28181 5.6208 4.20564 5.65387C4.12947 5.68694 4.07784 5.6208 4.07784 5.52371C4.07784 5.42663 3.93735 5.50771 3.84764 5.57172C3.75167 5.61906 3.65291 5.65687 3.55227 5.68481C3.52624 5.70017 3.49681 5.70379 3.46892 5.69505C3.44103 5.68631 3.41637 5.66574 3.39908 5.6368C3.35051 5.58439 3.29934 5.53593 3.24589 5.49171C3.17688 5.42931 3.11629 5.3533 3.06647 5.26661C2.98601 5.14006 2.92149 4.99864 2.87519 4.84733C2.86874 4.75577 2.86874 4.66366 2.87519 4.57209C2.8723 4.48571 2.87655 4.39918 2.88789 4.31391C2.90682 4.22243 2.93709 4.1353 2.9776 4.05573C3.04012 3.96977 3.11365 3.89765 3.19511 3.84236C3.2332 3.81036 3.32291 3.71328 3.32291 3.64927C3.32291 3.58525 3.37454 3.55218 3.39993 3.48817C3.42532 3.42416 3.51503 3.26307 3.63098 3.32708C3.6783 3.3202 3.72523 3.30951 3.77147 3.29507C3.83656 3.26705 3.90041 3.23465 3.96274 3.19799C4.02043 3.17259 4.08043 3.15646 4.14132 3.14998C4.18592 3.17329 4.23249 3.19011 4.28012 3.20012C4.3182 3.20012 4.44346 3.17239 4.44346 3.17239C4.46736 3.265 4.48658 3.35942 4.50101 3.4551C4.50101 3.50417 4.5391 3.55218 4.60427 3.58419C4.66943 3.61619 4.96227 3.69727 5.09091 3.56819C5.12053 3.53831 5.21871 3.61619 5.21871 3.61619C5.34516 3.64479 5.46925 3.688 5.58941 3.74528C5.64103 3.79436 5.73075 3.82636 5.75867 3.87544C5.80588 3.95215 5.84859 4.03309 5.88647 4.11761C5.90001 4.16562 5.96349 4.34378 5.97703 4.40779C5.99742 4.51374 6.02723 4.61646 6.0659 4.71398C6.10398 4.79506 6.3198 5.14925 6.39851 5.31141L6.62956 5.2634C6.6166 5.33201 6.59758 5.39857 6.57285 5.46184V5.46184ZM7.50383 4.84947C7.49113 4.78439 7.41411 4.55822 7.41411 4.55822C7.37845 4.49644 7.33533 4.44208 7.28632 4.39713C7.23554 4.36512 7.19661 4.28404 7.10689 4.22003C7.04842 4.16277 6.97766 4.12895 6.90377 4.12295C6.82675 4.12295 6.75058 3.99386 6.66003 3.92878C6.56947 3.8637 6.55762 3.89677 6.55762 3.89677C6.59971 3.97174 6.63412 4.05311 6.66003 4.13895C6.66003 4.18696 6.77513 4.26804 6.89108 4.23603C6.92432 4.31537 6.96283 4.39103 7.00618 4.4622C7.04426 4.51021 6.99348 4.55929 6.91647 4.6233C6.87832 4.64883 6.8435 4.68157 6.81321 4.72038C6.74801 4.78004 6.67957 4.83387 6.6084 4.88147C6.57031 4.91348 6.41628 5.01056 6.34011 4.91348C6.30202 4.86654 6.31387 4.76839 6.28933 4.70011C6.26479 4.63183 5.9948 4.13575 5.86616 3.90958C5.83456 3.83922 5.79587 3.77432 5.75106 3.71648C5.71297 3.6834 5.84077 3.6834 5.84077 3.6834C5.84049 3.61868 5.83596 3.55409 5.82723 3.49031C5.82171 3.42544 5.82631 3.35984 5.84077 3.29721C5.84077 3.29721 5.71297 3.39429 5.6715 3.42629C5.63003 3.4583 5.60041 3.36442 5.54963 3.28334C5.49696 3.20873 5.4577 3.12066 5.43453 3.02516C5.42183 2.94515 5.49885 2.91207 5.49885 2.91207L5.61395 2.83206C5.69014 2.81464 5.76776 2.80926 5.845 2.81606C5.93471 2.83206 6.07521 2.84806 6.07521 2.84806C6.07521 2.84806 6.11329 2.73498 6.06166 2.68697C6.01004 2.63896 5.8924 2.55788 5.84415 2.57388C5.79591 2.58989 5.86954 2.4928 5.93302 2.42879L5.79168 2.39679C5.79168 2.39679 5.66304 2.47787 5.62241 2.49387C5.56131 2.51662 5.50687 2.56151 5.46584 2.62296C5.41506 2.70404 5.48615 2.81606 5.43537 2.84913C5.39542 2.87489 5.3538 2.8963 5.31096 2.91314C5.25785 2.92153 5.20411 2.92153 5.151 2.91314C5.01897 2.91314 5.10361 3.0657 5.13746 3.11904L5.03505 2.96115L4.95888 2.73498C4.95888 2.73498 4.84971 2.6379 4.79892 2.60589C4.74814 2.57388 4.58988 2.4608 4.58988 2.4608L4.60088 2.60589L4.74899 2.79472H4.76253L4.85309 2.92381L4.69652 2.93981V2.81713C4.43415 2.76805 4.56449 2.71791 4.54672 2.70191L4.41469 2.59095C4.41469 2.59095 4.26065 2.62296 4.22172 2.64003C4.18279 2.6571 4.17094 2.70404 4.09477 2.73711C4.03788 2.75761 3.98885 2.80349 3.95682 2.8662C3.9083 2.95682 3.85485 3.04309 3.79686 3.12438C3.74523 3.18945 3.6496 3.17239 3.61066 3.17239C3.535 3.15643 3.46012 3.13506 3.38638 3.10837V2.83206C3.39874 2.76606 3.40302 2.69806 3.39908 2.63043L3.51164 2.60696L3.69868 2.55788L3.7537 2.50881L3.83325 2.37758C3.82143 2.36709 3.8114 2.35371 3.80374 2.33825C3.79609 2.32279 3.79097 2.30555 3.78868 2.28756C3.78639 2.26956 3.78699 2.25117 3.79043 2.23347C3.79387 2.21577 3.80008 2.19911 3.80871 2.18449C3.83918 2.13008 3.95005 2.12047 4.00083 2.0714C4.0406 2.03716 4.08388 2.00989 4.12947 1.99032C4.12947 1.99032 4.21918 1.89324 4.30889 1.77695C4.35373 1.74648 4.40078 1.72147 4.44939 1.70227C4.52685 1.7943 4.61197 1.8755 4.70329 1.94444C4.76676 1.91678 4.82708 1.87876 4.88271 1.83136C4.90055 1.76952 4.90916 1.70405 4.9081 1.63826C4.89541 1.59025 4.83109 1.42489 4.83109 1.42489C4.83109 1.42489 4.793 1.50597 4.75492 1.56998C4.72933 1.61524 4.70777 1.66389 4.69059 1.71507C4.69059 1.71507 4.51117 1.69907 4.49847 1.65106C4.48578 1.60305 4.46208 1.52411 4.44939 1.47823C4.43669 1.43236 4.33428 1.43129 4.25811 1.4633C4.18194 1.4953 4.27081 1.2894 4.27081 1.2894C4.27081 1.2894 4.34783 1.16778 4.39861 1.16778C4.47387 1.14231 4.54744 1.1095 4.61865 1.06963C4.70392 1.0133 4.79282 0.966185 4.88441 0.928807C4.94873 0.928807 5.02574 0.913871 5.06383 0.913871H5.2551L5.52424 0.936275C5.52424 0.936275 5.75529 1.06856 5.67743 1.13364C5.72219 1.17436 5.76514 1.21817 5.80607 1.26486C5.84162 1.31074 5.93471 1.22966 5.98803 1.19125C6.47638 1.57574 6.87926 2.11027 7.1589 2.74471C7.43853 3.37916 7.58576 4.09274 7.58677 4.81853C7.58677 4.90068 7.58084 4.98176 7.57746 5.06284C7.55207 4.98922 7.51652 4.89107 7.50721 4.84947H7.50383Z" fill="#90949C"/>
</svg>
