<svg width="9" height="11" viewBox="0 0 9 11" fill="none" xmlns="http://www.w3.org/2000/svg">
<path d="M4.50269 0.695801C3.76734 0.695801 3.04851 0.969084 2.43709 1.48109C1.82568 1.9931 1.34913 2.72084 1.06773 3.57228C0.786325 4.42371 0.712696 5.36061 0.856155 6.2645C0.999614 7.16838 1.35372 7.99865 1.87368 8.65031C2.39365 9.30197 3.05613 9.74576 3.77735 9.92555C4.49856 10.1053 5.24612 10.0131 5.92549 9.66039C6.60486 9.30772 7.18553 8.71048 7.59407 7.9442C8.0026 7.17793 8.22066 6.27703 8.22066 5.35544C8.21909 4.12023 7.82687 2.93617 7.12996 2.06275C6.43304 1.18932 5.48827 0.697764 4.50269 0.695801V0.695801ZM3.78753 2.36428L3.96103 2.4258V2.13941L4.02874 2.05986L4.10152 2.23593L4.23947 2.44807L4.18362 2.5446L3.96103 2.60824V2.43534L3.78753 2.60506L3.73675 2.50853L3.78753 2.36428ZM1.10971 5.2515C1.12575 4.38119 1.35602 3.53837 1.76901 2.83841C1.77677 2.83962 1.78442 2.84175 1.79186 2.84477C1.79186 2.90842 1.72246 2.92433 1.79186 3.08555C1.88073 3.29769 1.80455 3.38997 1.80455 3.38997C1.80455 3.38997 1.58705 3.58196 1.55065 3.61484C1.51426 3.64772 1.41016 3.82698 1.47364 3.77501C1.53711 3.72303 1.61413 3.67848 1.55065 3.80683C1.48718 3.93517 1.37123 4.14413 1.34584 4.22368C1.32045 4.30323 1.19265 4.49628 1.19265 4.5928C1.17447 4.71486 1.16175 4.83809 1.15457 4.96193C1.15411 5.0611 1.1389 5.15931 1.10971 5.2515ZM2.43169 7.93082L2.38007 8.17053L2.43169 8.36252C2.39605 8.40014 2.35364 8.42635 2.30813 8.43889C2.26073 8.43889 2.24465 8.47602 2.19302 8.45904C1.6954 7.88114 1.34727 7.12971 1.1935 6.30159C1.22123 6.31333 1.24642 6.33293 1.26713 6.35886C1.3078 6.40776 1.35585 6.44599 1.40847 6.4713C1.47194 6.50418 1.49818 6.55085 1.57774 6.59964C1.65729 6.64843 1.62936 6.61661 1.73092 6.76087C1.7856 6.82012 1.82555 6.8978 1.84603 6.98468C1.87025 7.05894 1.9003 7.13 1.93574 7.19681C1.96113 7.24561 2.03814 7.27743 2.07623 7.30925C2.11832 7.34424 2.1665 7.36607 2.21672 7.37289C2.25565 7.37289 2.37076 7.51715 2.43423 7.53306C2.49771 7.54897 2.49855 7.71019 2.49855 7.71019L2.43169 7.93082ZM2.9395 1.73847C2.87952 1.80871 2.82299 1.88345 2.77023 1.96227C2.74383 2.02747 2.70411 2.08274 2.65513 2.12244C2.60257 2.16843 2.5589 2.2286 2.52733 2.29851L2.38599 2.36216L2.27089 2.29851C2.27089 2.29851 2.16763 2.34731 2.18118 2.2826C2.18545 2.26458 2.19054 2.24687 2.19641 2.22957C2.51175 1.86337 2.87964 1.57543 3.28057 1.38101C3.24079 1.44465 3.19594 1.51042 3.19594 1.51042C3.19594 1.51042 3.11046 1.5136 2.94373 1.73847H2.9395ZM6.84789 7.49805C6.83435 7.56169 6.80981 7.67413 6.79711 7.73883C6.77416 7.82455 6.73461 7.90181 6.68201 7.9637C6.64393 7.99552 6.5796 8.09204 6.54152 8.10795C6.50343 8.12386 6.4772 7.99552 6.48989 7.93082C6.51228 7.84897 6.53799 7.76861 6.56691 7.69004C6.56691 7.69004 6.5796 7.59352 6.5923 7.52987C6.60499 7.46623 6.76157 7.38562 6.76157 7.38562L6.86143 7.14484C6.86863 7.1817 6.87289 7.21936 6.87413 7.25727C6.87046 7.33827 6.86169 7.41879 6.84789 7.49805V7.49805ZM6.88598 5.98974C6.86059 6.03747 6.78357 6.16582 6.74464 6.22946C6.69644 6.31824 6.63958 6.39913 6.57537 6.47024C6.49836 6.55085 6.49835 6.6304 6.46027 6.6951C6.42585 6.76267 6.39584 6.83361 6.37056 6.90724C6.37056 6.90724 6.39595 7.22545 6.40864 7.29228C6.42134 7.3591 6.31893 7.532 6.31893 7.532L6.20383 7.67625L6.0498 7.93294L6.06249 8.17266C6.06249 8.17266 5.94654 8.28509 5.88222 8.34979C5.8179 8.4145 5.8289 8.46223 5.77727 8.52693C5.70716 8.60719 5.62676 8.67209 5.53945 8.71892C5.48867 8.73483 5.27116 8.78256 5.27116 8.78256V8.63618L5.20007 8.47602C5.16786 8.38756 5.13111 8.30182 5.09005 8.21933C5.05196 8.15568 5.05196 8.05916 4.98764 7.97855C4.94042 7.92521 4.90339 7.85923 4.87931 7.7855C4.87553 7.71996 4.8801 7.65408 4.89285 7.59033C4.89285 7.59033 4.94194 7.4132 4.96817 7.34955C4.97641 7.31178 4.97825 7.27226 4.97359 7.23353C4.96892 7.19481 4.95785 7.15774 4.94109 7.12469C4.9171 7.03687 4.90425 6.94489 4.903 6.85209C4.903 6.80436 4.79975 6.72268 4.76167 6.67495C4.72358 6.62722 4.73628 6.56252 4.73628 6.49888C4.71956 6.39408 4.71077 6.28754 4.71004 6.18067C4.72273 6.06823 4.59494 6.14778 4.51877 6.18067C4.4426 6.21355 4.39097 6.14778 4.39097 6.05126C4.39097 5.95474 4.25048 6.03535 4.16076 6.09899C4.0648 6.14606 3.96604 6.18365 3.86539 6.21143C3.83936 6.2267 3.80994 6.2303 3.78204 6.22161C3.75415 6.21292 3.72949 6.19247 3.7122 6.1637C3.66363 6.11159 3.61247 6.06341 3.55902 6.01944C3.49 5.9574 3.42942 5.88183 3.37959 5.79563C3.29913 5.66982 3.23462 5.52922 3.18832 5.37878C3.18186 5.28774 3.18186 5.19616 3.18832 5.10512C3.18542 5.01924 3.18968 4.93321 3.20102 4.84843C3.21994 4.75748 3.25022 4.67085 3.29073 4.59174C3.35325 4.50628 3.42677 4.43457 3.50824 4.3796C3.54632 4.34778 3.63603 4.25126 3.63603 4.18762C3.63603 4.12397 3.68766 4.09109 3.71305 4.02745C3.73844 3.96381 3.82815 3.80364 3.9441 3.86729C3.99143 3.86045 4.03835 3.84982 4.08459 3.83546C4.14968 3.80761 4.21353 3.77539 4.27587 3.73894C4.33356 3.71369 4.39355 3.69765 4.45444 3.69121C4.49905 3.71438 4.54562 3.73111 4.59324 3.74106C4.63133 3.74106 4.75659 3.71348 4.75659 3.71348C4.78049 3.80556 4.79971 3.89945 4.81414 3.99457C4.81414 4.04336 4.85222 4.09109 4.91739 4.12291C4.98256 4.15473 5.27539 4.23535 5.40404 4.107C5.43366 4.0773 5.53184 4.15473 5.53184 4.15473C5.65828 4.18317 5.78237 4.22613 5.90253 4.28308C5.95416 4.33187 6.04387 4.36369 6.0718 4.41248C6.119 4.48875 6.16171 4.56922 6.1996 4.65326C6.21314 4.70099 6.27661 4.87813 6.29016 4.94177C6.31054 5.04711 6.34035 5.14923 6.37902 5.24619C6.41711 5.32681 6.63292 5.67896 6.71163 5.84018L6.94268 5.79245C6.92973 5.86066 6.91071 5.92684 6.88598 5.98974V5.98974ZM7.81695 5.3809C7.80426 5.3162 7.72724 5.09133 7.72724 5.09133C7.69157 5.02991 7.64845 4.97587 7.59944 4.93117C7.54866 4.89934 7.50973 4.81873 7.42002 4.75509C7.36155 4.69816 7.29079 4.66453 7.2169 4.65857C7.13988 4.65857 7.06371 4.53022 6.97315 4.46552C6.88259 4.40082 6.87074 4.4337 6.87074 4.4337C6.91284 4.50823 6.94724 4.58913 6.97315 4.67448C6.97315 4.72221 7.08825 4.80282 7.2042 4.771C7.23745 4.84989 7.27595 4.92511 7.3193 4.99587C7.35739 5.0436 7.30661 5.09239 7.22959 5.15603C7.19145 5.18142 7.15663 5.21397 7.12634 5.25256C7.06113 5.31187 6.99269 5.36539 6.92152 5.41272C6.88344 5.44454 6.72941 5.54107 6.65324 5.44454C6.61515 5.39787 6.627 5.30029 6.60245 5.2324C6.57791 5.16452 6.30793 4.67129 6.17929 4.44643C6.14768 4.37648 6.10899 4.31195 6.06418 4.25444C6.0261 4.22156 6.15389 4.22156 6.15389 4.22156C6.15361 4.1572 6.14908 4.09299 6.14035 4.02957C6.13484 3.96508 6.13944 3.89986 6.15389 3.83759C6.15389 3.83759 6.0261 3.93411 5.98463 3.96593C5.94316 3.99775 5.91353 3.90441 5.86275 3.8238C5.81009 3.74962 5.77082 3.66206 5.74765 3.56711C5.73496 3.48756 5.81197 3.45467 5.81197 3.45467L5.92708 3.37512C6.00327 3.3578 6.08088 3.35245 6.15813 3.35921C6.24784 3.37512 6.38833 3.39103 6.38833 3.39103C6.38833 3.39103 6.42642 3.2786 6.37479 3.23087C6.32316 3.18314 6.20552 3.10252 6.15728 3.11843C6.10904 3.13434 6.18267 3.03782 6.24615 2.97418L6.10481 2.94236C6.10481 2.94236 5.97616 3.02297 5.93554 3.03888C5.87444 3.0615 5.81999 3.10613 5.77897 3.16723C5.72819 3.24784 5.79928 3.35921 5.7485 3.39209C5.70855 3.4177 5.66693 3.439 5.62409 3.45574C5.57097 3.46408 5.51724 3.46408 5.46413 3.45574C5.3321 3.45574 5.41673 3.60741 5.45059 3.66045L5.34818 3.50347L5.27201 3.2786C5.27201 3.2786 5.16283 3.18208 5.11205 3.15025C5.06127 3.11843 4.903 3.006 4.903 3.006L4.91401 3.15025L5.06212 3.338H5.07566L5.16622 3.46634L5.00964 3.48225V3.36027C4.74728 3.31148 4.87761 3.26163 4.85984 3.24572L4.72781 3.1354C4.72781 3.1354 4.57378 3.16723 4.53485 3.1842C4.49592 3.20117 4.48407 3.24784 4.4079 3.28072C4.35101 3.3011 4.30197 3.34672 4.26994 3.40906C4.22143 3.49916 4.16798 3.58493 4.10998 3.66575C4.05836 3.73046 3.96272 3.71348 3.92379 3.71348C3.84813 3.69762 3.77325 3.67637 3.69951 3.64984V3.37512C3.71186 3.3095 3.71615 3.24189 3.7122 3.17465L3.82477 3.15132L4.01181 3.10252L4.06682 3.05373L4.14638 2.92327C4.13456 2.91283 4.12452 2.89953 4.11687 2.88416C4.10922 2.86879 4.10409 2.85165 4.10181 2.83376C4.09952 2.81587 4.10011 2.79758 4.10355 2.77998C4.10699 2.76238 4.11321 2.74582 4.12183 2.73128C4.1523 2.67718 4.26317 2.66764 4.31395 2.61884C4.35373 2.5848 4.397 2.55769 4.4426 2.53823C4.4426 2.53823 4.53231 2.44171 4.62202 2.32609C4.66686 2.2958 4.7139 2.27094 4.76251 2.25184C4.83997 2.34334 4.9251 2.42407 5.01641 2.49262C5.07988 2.46512 5.1402 2.42732 5.19584 2.38019C5.21368 2.3187 5.22229 2.25361 5.22123 2.1882C5.20853 2.14047 5.14421 1.97606 5.14421 1.97606C5.14421 1.97606 5.10613 2.05668 5.06804 2.12032C5.04246 2.16531 5.02089 2.21369 5.00372 2.26457C5.00372 2.26457 4.82429 2.24866 4.8116 2.20093C4.7989 2.1532 4.77521 2.07471 4.76251 2.0291C4.74982 1.98349 4.64741 1.98243 4.57124 2.01425C4.49507 2.04607 4.58393 1.84135 4.58393 1.84135C4.58393 1.84135 4.66095 1.72043 4.71173 1.72043C4.78699 1.69511 4.86056 1.66249 4.93178 1.62285C5.01704 1.56684 5.10595 1.52 5.19753 1.48284C5.26185 1.48284 5.33887 1.46799 5.37696 1.46799H5.56823L5.83736 1.49026C5.83736 1.49026 6.06841 1.62179 5.99055 1.68649C6.03532 1.72698 6.07826 1.77054 6.11919 1.81696C6.15474 1.86257 6.24784 1.78195 6.30116 1.74377C6.78951 2.12604 7.19239 2.65749 7.47202 3.28828C7.75166 3.91907 7.89888 4.62853 7.89989 5.35014C7.89989 5.43181 7.89397 5.51243 7.89058 5.59304C7.86519 5.51985 7.82965 5.42227 7.82034 5.3809H7.81695Z" fill="#90949C"/>
</svg>
