<svg width="8" height="10" viewBox="0 0 8 10" fill="none" xmlns="http://www.w3.org/2000/svg">
<path d="M3.81578 0.137207C3.08044 0.137207 2.3616 0.412075 1.75019 0.927051C1.13877 1.44203 0.662229 2.17398 0.380824 3.03036C0.0994198 3.88673 0.0257916 4.82906 0.16925 5.73819C0.312709 6.64731 0.666811 7.48239 1.18678 8.13783C1.70675 8.79327 2.36923 9.23963 3.09044 9.42047C3.81166 9.6013 4.55922 9.50849 5.23859 9.15377C5.91796 8.79905 6.49862 8.19835 6.90716 7.42763C7.3157 6.65691 7.53375 5.7508 7.53375 4.82386C7.53219 3.58149 7.13997 2.39057 6.44305 1.51208C5.74614 0.633588 4.80137 0.139182 3.81578 0.137207V0.137207ZM3.10062 1.81536L3.27412 1.87723V1.58919L3.34183 1.50917L3.41462 1.68627L3.55257 1.89964L3.49671 1.99672L3.27412 2.06073V1.88684L3.10062 2.05753L3.04984 1.96045L3.10062 1.81536ZM0.422805 4.71931C0.438845 3.84396 0.669119 2.99625 1.0821 2.29224C1.08986 2.29345 1.09752 2.2956 1.10495 2.29864C1.10495 2.36265 1.03556 2.37865 1.10495 2.54081C1.19382 2.75418 1.11765 2.847 1.11765 2.847C1.11765 2.847 0.900141 3.0401 0.863748 3.07317C0.827355 3.10624 0.723256 3.28654 0.786731 3.23426C0.850207 3.18199 0.927223 3.13718 0.863748 3.26627C0.800272 3.39536 0.684324 3.60552 0.658934 3.68554C0.633544 3.76555 0.505746 3.95972 0.505746 4.0568C0.487561 4.17956 0.474846 4.30351 0.467661 4.42806C0.467204 4.52782 0.451992 4.62659 0.422805 4.71931ZM1.74479 7.41417L1.69316 7.65527L1.74479 7.84837C1.70914 7.88621 1.66674 7.91257 1.62122 7.92519C1.57383 7.92519 1.55775 7.96253 1.50612 7.94546C1.00849 7.36421 0.66036 6.60842 0.506593 5.77549C0.534323 5.78731 0.559519 5.80702 0.580224 5.8331C0.620893 5.88228 0.668946 5.92073 0.721563 5.94619C0.785038 5.97926 0.811275 6.0262 0.890831 6.07527C0.970387 6.12435 0.942458 6.09234 1.04402 6.23744C1.09869 6.29703 1.13864 6.37516 1.15912 6.46254C1.18334 6.53724 1.21339 6.60871 1.24883 6.67591C1.27422 6.72498 1.35124 6.75699 1.38933 6.789C1.43142 6.82419 1.4796 6.84614 1.52982 6.85301C1.56875 6.85301 1.68385 6.9981 1.74733 7.0141C1.8108 7.0301 1.81165 7.19226 1.81165 7.19226L1.74479 7.41417ZM2.25259 1.18592C2.19261 1.25657 2.13609 1.33174 2.08332 1.41102C2.05692 1.4766 2.01721 1.53218 1.96822 1.57212C1.91566 1.61837 1.87199 1.67889 1.84042 1.74921L1.69909 1.81322L1.58398 1.74921C1.58398 1.74921 1.48073 1.79829 1.49427 1.73321C1.49855 1.71508 1.50363 1.69727 1.50951 1.67987C1.82485 1.31155 2.19273 1.02194 2.59367 0.82639C2.55389 0.890401 2.50903 0.956545 2.50903 0.956545C2.50903 0.956545 2.42355 0.959746 2.25682 1.18592H2.25259ZM6.16099 6.97889C6.14745 7.0429 6.1229 7.15599 6.11021 7.22107C6.08725 7.30729 6.04771 7.38499 5.99511 7.44724C5.95702 7.47924 5.8927 7.57633 5.85461 7.59233C5.81653 7.60833 5.79029 7.47924 5.80299 7.41417C5.82538 7.33184 5.85108 7.25102 5.88 7.17199C5.88 7.17199 5.8927 7.07491 5.90539 7.0109C5.91809 6.94689 6.07466 6.86581 6.07466 6.86581L6.17453 6.62363C6.18173 6.6607 6.18598 6.69859 6.18723 6.73672C6.18356 6.81819 6.17478 6.89917 6.16099 6.97889V6.97889ZM6.19907 5.46184C6.17368 5.50985 6.09667 5.63893 6.05773 5.70295C6.00954 5.79224 5.95267 5.8736 5.88847 5.94512C5.81145 6.0262 5.81145 6.10621 5.77336 6.17129C5.73894 6.23925 5.70894 6.3106 5.68365 6.38466C5.68365 6.38466 5.70904 6.70471 5.72174 6.77193C5.73443 6.83914 5.63203 7.01303 5.63203 7.01303L5.51692 7.15812L5.36289 7.4163L5.37559 7.65741C5.37559 7.65741 5.25964 7.77049 5.19531 7.83557C5.13099 7.90065 5.142 7.94866 5.09037 8.01373C5.02025 8.09446 4.93985 8.15974 4.85255 8.20683C4.80177 8.22284 4.58426 8.27084 4.58426 8.27084V8.12362L4.51316 7.96253C4.48095 7.87356 4.4442 7.78732 4.40314 7.70435C4.36506 7.64034 4.36506 7.54326 4.30073 7.46218C4.25351 7.40853 4.21648 7.34217 4.1924 7.26801C4.18863 7.20208 4.1932 7.13582 4.20594 7.07171C4.20594 7.07171 4.25503 6.89355 4.28127 6.82953C4.2895 6.79154 4.29135 6.75179 4.28668 6.71284C4.28202 6.67389 4.27095 6.6366 4.25418 6.60336C4.2302 6.51504 4.21735 6.42252 4.2161 6.32918C4.2161 6.28118 4.11285 6.19903 4.07476 6.15102C4.03668 6.10301 4.04937 6.03794 4.04937 5.97392C4.03265 5.86852 4.02387 5.76136 4.02313 5.65387C4.03583 5.54078 3.90803 5.6208 3.83186 5.65387C3.75569 5.68694 3.70406 5.6208 3.70406 5.52371C3.70406 5.42663 3.56357 5.50771 3.47386 5.57172C3.37789 5.61906 3.27913 5.65687 3.17849 5.68481C3.15246 5.70017 3.12303 5.70379 3.09514 5.69505C3.06725 5.68631 3.04259 5.66574 3.0253 5.6368C2.97673 5.58439 2.92556 5.53593 2.87211 5.49171C2.8031 5.42931 2.74251 5.3533 2.69269 5.26661C2.61223 5.14006 2.54771 4.99864 2.50142 4.84733C2.49496 4.75577 2.49496 4.66366 2.50142 4.57209C2.49852 4.48571 2.50277 4.39918 2.51411 4.31391C2.53304 4.22243 2.56331 4.1353 2.60382 4.05573C2.66635 3.96977 2.73987 3.89765 2.82133 3.84236C2.85942 3.81036 2.94913 3.71328 2.94913 3.64927C2.94913 3.58525 3.00076 3.55218 3.02615 3.48817C3.05154 3.42416 3.14125 3.26307 3.2572 3.32708C3.30452 3.3202 3.35145 3.30951 3.39769 3.29507C3.46278 3.26705 3.52663 3.23465 3.58896 3.19799C3.64665 3.17259 3.70665 3.15646 3.76754 3.14998C3.81215 3.17329 3.85871 3.19011 3.90634 3.20012C3.94442 3.20012 4.06968 3.17239 4.06968 3.17239C4.09358 3.265 4.1128 3.35942 4.12723 3.4551C4.12723 3.50417 4.16532 3.55218 4.23049 3.58419C4.29566 3.61619 4.58849 3.69727 4.71713 3.56819C4.74675 3.53831 4.84493 3.61619 4.84493 3.61619C4.97138 3.64479 5.09547 3.688 5.21563 3.74528C5.26725 3.79436 5.35697 3.82636 5.3849 3.87544C5.4321 3.95215 5.47481 4.03309 5.51269 4.11761C5.52623 4.16562 5.58971 4.34378 5.60325 4.40779C5.62364 4.51374 5.65345 4.61646 5.69212 4.71398C5.7302 4.79506 5.94602 5.14925 6.02473 5.31141L6.25578 5.2634C6.24282 5.33201 6.2238 5.39857 6.19907 5.46184V5.46184ZM7.13005 4.84947C7.11735 4.78439 7.04034 4.55822 7.04034 4.55822C7.00467 4.49644 6.96155 4.44208 6.91254 4.39713C6.86176 4.36512 6.82283 4.28404 6.73311 4.22003C6.67464 4.16277 6.60388 4.12895 6.52999 4.12295C6.45298 4.12295 6.3768 3.99386 6.28625 3.92878C6.19569 3.8637 6.18384 3.89677 6.18384 3.89677C6.22593 3.97174 6.26034 4.05311 6.28625 4.13895C6.28625 4.18696 6.40135 4.26804 6.5173 4.23603C6.55054 4.31537 6.58905 4.39103 6.6324 4.4622C6.67049 4.51021 6.6197 4.55929 6.54269 4.6233C6.50454 4.64883 6.46972 4.68157 6.43943 4.72038C6.37423 4.78004 6.30579 4.83387 6.23462 4.88147C6.19653 4.91348 6.0425 5.01056 5.96633 4.91348C5.92825 4.86654 5.94009 4.76839 5.91555 4.70011C5.89101 4.63183 5.62102 4.13575 5.49238 3.90958C5.46078 3.83922 5.42209 3.77432 5.37728 3.71648C5.33919 3.6834 5.46699 3.6834 5.46699 3.6834C5.46671 3.61868 5.46218 3.55409 5.45345 3.49031C5.44793 3.42544 5.45253 3.35984 5.46699 3.29721C5.46699 3.29721 5.33919 3.39429 5.29772 3.42629C5.25625 3.4583 5.22663 3.36442 5.17585 3.28334C5.12318 3.20873 5.08392 3.12066 5.06075 3.02516C5.04805 2.94515 5.12507 2.91207 5.12507 2.91207L5.24017 2.83206C5.31636 2.81464 5.39398 2.80926 5.47122 2.81606C5.56093 2.83206 5.70143 2.84806 5.70143 2.84806C5.70143 2.84806 5.73951 2.73498 5.68788 2.68697C5.63626 2.63896 5.51862 2.55788 5.47038 2.57388C5.42213 2.58989 5.49577 2.4928 5.55924 2.42879L5.4179 2.39679C5.4179 2.39679 5.28926 2.47787 5.24863 2.49387C5.18753 2.51662 5.13309 2.56151 5.09206 2.62296C5.04128 2.70404 5.11237 2.81606 5.06159 2.84913C5.02164 2.87489 4.98002 2.8963 4.93718 2.91314C4.88407 2.92153 4.83033 2.92153 4.77722 2.91314C4.64519 2.91314 4.72983 3.0657 4.76368 3.11904L4.66127 2.96115L4.5851 2.73498C4.5851 2.73498 4.47593 2.6379 4.42515 2.60589C4.37437 2.57388 4.2161 2.4608 4.2161 2.4608L4.2271 2.60589L4.37521 2.79472H4.38875L4.47931 2.92381L4.32274 2.93981V2.81713C4.06037 2.76805 4.19071 2.71791 4.17294 2.70191L4.04091 2.59095C4.04091 2.59095 3.88687 2.62296 3.84794 2.64003C3.80901 2.6571 3.79716 2.70404 3.72099 2.73711C3.6641 2.75761 3.61507 2.80349 3.58304 2.8662C3.53452 2.95682 3.48107 3.04309 3.42308 3.12438C3.37145 3.18945 3.27582 3.17239 3.23688 3.17239C3.16122 3.15643 3.08634 3.13506 3.0126 3.10837V2.83206C3.02496 2.76606 3.02924 2.69806 3.0253 2.63043L3.13786 2.60696L3.3249 2.55788L3.37992 2.50881L3.45947 2.37758C3.44765 2.36709 3.43762 2.35371 3.42997 2.33825C3.42231 2.32279 3.41719 2.30555 3.4149 2.28756C3.41261 2.26956 3.41321 2.25117 3.41665 2.23347C3.42009 2.21577 3.4263 2.19911 3.43493 2.18449C3.4654 2.13008 3.57627 2.12047 3.62705 2.0714C3.66682 2.03716 3.7101 2.00989 3.75569 1.99032C3.75569 1.99032 3.8454 1.89324 3.93511 1.77695C3.97995 1.74648 4.027 1.72147 4.07561 1.70227C4.15307 1.7943 4.2382 1.8755 4.32951 1.94444C4.39298 1.91678 4.4533 1.87876 4.50893 1.83136C4.52677 1.76952 4.53538 1.70405 4.53432 1.63826C4.52163 1.59025 4.45731 1.42489 4.45731 1.42489C4.45731 1.42489 4.41922 1.50597 4.38114 1.56998C4.35556 1.61524 4.33399 1.66389 4.31681 1.71507C4.31681 1.71507 4.13739 1.69907 4.12469 1.65106C4.112 1.60305 4.0883 1.52411 4.07561 1.47823C4.06291 1.43236 3.96051 1.43129 3.88433 1.4633C3.80816 1.4953 3.89703 1.2894 3.89703 1.2894C3.89703 1.2894 3.97405 1.16778 4.02483 1.16778C4.10009 1.14231 4.17366 1.1095 4.24488 1.06963C4.33014 1.0133 4.41904 0.966185 4.51063 0.928807C4.57495 0.928807 4.65196 0.913871 4.69005 0.913871H4.88132L5.15046 0.936275C5.15046 0.936275 5.38151 1.06856 5.30365 1.13364C5.34841 1.17436 5.39136 1.21817 5.43229 1.26486C5.46784 1.31074 5.56093 1.22966 5.61425 1.19125C6.1026 1.57574 6.50548 2.11027 6.78512 2.74471C7.06475 3.37916 7.21198 4.09274 7.21299 4.81853C7.21299 4.90068 7.20706 4.98176 7.20368 5.06284C7.17829 4.98922 7.14274 4.89107 7.13343 4.84947H7.13005Z" fill="#90949C"/>
</svg>
