<svg width="60" height="24" viewBox="0 0 60 24" fill="none" xmlns="http://www.w3.org/2000/svg">
<path d="M57.8137 0.222168H2.26346C1.25757 0.222168 0.442139 1.0329 0.442139 2.03299V21.952C0.442139 22.9521 1.25757 23.7629 2.26346 23.7629H57.8137C58.8196 23.7629 59.6351 22.9521 59.6351 21.952V2.03299C59.6351 1.0329 58.8196 0.222168 57.8137 0.222168Z" fill="#F6F7F9"/>
<path d="M57.8139 0.674805H2.26357C1.50916 0.674805 0.897583 1.28285 0.897583 2.03292V21.952C0.897583 22.702 1.50916 23.3101 2.26357 23.3101H57.8139C58.5683 23.3101 59.1798 22.702 59.1798 21.952V2.03292C59.1798 1.28285 58.5683 0.674805 57.8139 0.674805Z" stroke="#CED0D4"/>
</svg>
