<svg width="60" height="25" viewBox="0 0 60 25" fill="none" xmlns="http://www.w3.org/2000/svg">
<path d="M57.4403 0.745605H1.89005C0.884159 0.745605 0.0687256 1.56104 0.0687256 2.56693V22.6015C0.0687256 23.6073 0.884159 24.4228 1.89005 24.4228H57.4403C58.4462 24.4228 59.2617 23.6073 59.2617 22.6015V2.56693C59.2617 1.56104 58.4462 0.745605 57.4403 0.745605Z" fill="#F6F7F9"/>
<path d="M57.4403 1.20117H1.89004C1.13562 1.20117 0.524048 1.81275 0.524048 2.56716V22.6017C0.524048 23.3561 1.13562 23.9677 1.89004 23.9677H57.4403C58.1947 23.9677 58.8063 23.3561 58.8063 22.6017V2.56716C58.8063 1.81275 58.1947 1.20117 57.4403 1.20117Z" stroke="#CED0D4"/>
</svg>
