<svg width="28" height="28" viewBox="0 0 28 28" fill="none" xmlns="http://www.w3.org/2000/svg">
<path d="M22.4467 6.51H21.98L18.0367 2.56667C17.7217 2.25167 17.2083 2.25167 16.8817 2.56667C16.5667 2.88167 16.5667 3.395 16.8817 3.72167L19.67 6.51H8.33L11.1183 3.72167C11.4333 3.40667 11.4333 2.89333 11.1183 2.56667C10.8033 2.25167 10.29 2.25167 9.96333 2.56667L6.03167 6.51H5.565C4.515 6.51 2.33333 6.51 2.33333 9.49667C2.33333 10.6283 2.56667 11.375 3.05667 11.865C3.33667 12.1567 3.675 12.3083 4.03667 12.39C4.375 12.4717 4.73667 12.4833 5.08667 12.4833H22.9133C23.275 12.4833 23.6133 12.46 23.94 12.39C24.92 12.1567 25.6667 11.4567 25.6667 9.49667C25.6667 6.51 23.485 6.51 22.4467 6.51Z" fill="#ABB5C2"/>
<path d="M22.225 14H5.68167C4.95833 14 4.41 14.6417 4.52667 15.3533L5.50667 21.35C5.83333 23.3567 6.70833 25.6667 10.5933 25.6667H17.1383C21.07 25.6667 21.77 23.695 22.19 21.49L23.3683 15.3883C23.5083 14.665 22.96 14 22.225 14ZM12.3783 21.525C12.3783 21.98 12.0167 22.3417 11.5733 22.3417C11.1183 22.3417 10.7567 21.98 10.7567 21.525V17.675C10.7567 17.2317 11.1183 16.8583 11.5733 16.8583C12.0167 16.8583 12.3783 17.2317 12.3783 17.675V21.525ZM17.3717 21.525C17.3717 21.98 17.01 22.3417 16.555 22.3417C16.1117 22.3417 15.7383 21.98 15.7383 21.525V17.675C15.7383 17.2317 16.1117 16.8583 16.555 16.8583C17.01 16.8583 17.3717 17.2317 17.3717 17.675V21.525Z" fill="#ABB5C2"/>
<g opacity="0">
</g>
</svg>
