<svg width="21" height="21" viewBox="0 0 21 21" fill="none" xmlns="http://www.w3.org/2000/svg">
<path d="M15.75 14.6563C15.61 14.6563 15.4787 14.6125 15.3562 14.525C15.0675 14.3063 15.0062 13.895 15.225 13.6063C16.5987 11.7775 16.5987 9.2225 15.225 7.39375C15.0062 7.105 15.0675 6.69375 15.3562 6.475C15.645 6.25625 16.0563 6.3175 16.275 6.60625C17.99 8.89875 17.99 12.1013 16.275 14.3938C16.1438 14.5688 15.9512 14.6563 15.75 14.6563Z" fill="white"/>
<path d="M17.3513 16.8437C17.2113 16.8437 17.08 16.8 16.9575 16.7125C16.6687 16.4937 16.6075 16.0825 16.8263 15.7937C19.1625 12.6787 19.1625 8.32125 16.8263 5.20625C16.6075 4.9175 16.6687 4.50625 16.9575 4.2875C17.2462 4.06875 17.6575 4.13 17.8763 4.41875C20.5625 7.9975 20.5625 13.0025 17.8763 16.5812C17.7538 16.7562 17.5525 16.8437 17.3513 16.8437Z" fill="white"/>
<path d="M12.2675 3.3075C11.2875 2.765 10.0362 2.905 8.75875 3.70125L6.20375 5.3025C6.02875 5.4075 5.8275 5.46875 5.62625 5.46875H4.8125H4.375C2.2575 5.46875 1.09375 6.6325 1.09375 8.75V12.25C1.09375 14.3675 2.2575 15.5312 4.375 15.5312H4.8125H5.62625C5.8275 15.5312 6.02875 15.5925 6.20375 15.6975L8.75875 17.2987C9.52875 17.78 10.2812 18.0162 10.9812 18.0162C11.4362 18.0162 11.8738 17.9112 12.2675 17.6925C13.2388 17.15 13.7812 16.0212 13.7812 14.5162V6.48375C13.7812 4.97875 13.2388 3.85 12.2675 3.3075Z" fill="white"/>
<g opacity="0">
</g>
</svg>
