<svg width="25" height="26" viewBox="0 0 25 26" fill="none" xmlns="http://www.w3.org/2000/svg">
<path d="M22.4167 12.9998C22.4167 18.7254 17.9585 23.3332 12.5 23.3332C7.04149 23.3332 2.58334 18.7254 2.58334 12.9998C2.58334 7.27423 7.04149 2.6665 12.5 2.6665C17.9585 2.6665 22.4167 7.27423 22.4167 12.9998Z" fill="#0F6EFF" stroke="white"/>
<path d="M11.0208 16.8786C10.8125 16.8786 10.6146 16.7919 10.4687 16.6402L7.52081 13.5744C7.21873 13.2602 7.21873 12.7402 7.52081 12.4261C7.8229 12.1119 8.3229 12.1119 8.62498 12.4261L11.0208 14.9177L16.375 9.34939C16.6771 9.03523 17.1771 9.03523 17.4791 9.34939C17.7812 9.66356 17.7812 10.1836 17.4791 10.4977L11.5729 16.6402C11.4271 16.7919 11.2291 16.8786 11.0208 16.8786Z" fill="white"/>
</svg>
