<svg width="21" height="21" viewBox="0 0 21 21" fill="none" xmlns="http://www.w3.org/2000/svg">
<path d="M4.54127 5.58227C4.37502 5.58227 4.20002 5.51227 4.07752 5.38977C3.82377 5.13602 3.82377 4.71602 4.07752 4.46227L7.25377 1.28602C7.50752 1.03227 7.92752 1.03227 8.18127 1.28602C8.43502 1.53977 8.43502 1.95977 8.18127 2.21352L5.00502 5.38977C4.87377 5.51227 4.70752 5.58227 4.54127 5.58227Z" fill="white"/>
<path d="M16.4587 5.58227C16.2925 5.58227 16.1262 5.52102 15.995 5.38977L12.8187 2.21352C12.565 1.95977 12.565 1.53977 12.8187 1.28602C13.0725 1.03227 13.4925 1.03227 13.7462 1.28602L16.9225 4.46227C17.1762 4.71602 17.1762 5.13602 16.9225 5.38977C16.8 5.51227 16.625 5.58227 16.4587 5.58227Z" fill="white"/>
<path d="M17.6837 9.2749C17.6225 9.2749 17.5613 9.2749 17.5 9.2749H17.2988H3.5C2.8875 9.28365 2.1875 9.28365 1.68 8.77615C1.2775 8.3824 1.09375 7.7699 1.09375 6.86865C1.09375 4.4624 2.8525 4.4624 3.6925 4.4624H17.3075C18.1475 4.4624 19.9062 4.4624 19.9062 6.86865C19.9062 7.77865 19.7225 8.3824 19.32 8.77615C18.865 9.23115 18.2525 9.2749 17.6837 9.2749ZM3.6925 7.9624H17.5088C17.9025 7.97115 18.27 7.97115 18.3925 7.84865C18.4538 7.7874 18.585 7.5774 18.585 6.86865C18.585 5.8799 18.34 5.7749 17.2988 5.7749H3.6925C2.65125 5.7749 2.40625 5.8799 2.40625 6.86865C2.40625 7.5774 2.54625 7.7874 2.59875 7.84865C2.72125 7.9624 3.0975 7.9624 3.4825 7.9624H3.6925Z" fill="white"/>
<path d="M8.53998 16.0125C8.18123 16.0125 7.88373 15.715 7.88373 15.3562V12.25C7.88373 11.8912 8.18123 11.5938 8.53998 11.5938C8.89873 11.5938 9.19623 11.8912 9.19623 12.25V15.3562C9.19623 15.7237 8.89873 16.0125 8.53998 16.0125Z" fill="white"/>
<path d="M12.565 16.0125C12.2063 16.0125 11.9088 15.715 11.9088 15.3562V12.25C11.9088 11.8912 12.2063 11.5938 12.565 11.5938C12.9238 11.5938 13.2213 11.8912 13.2213 12.25V15.3562C13.2213 15.7237 12.9238 16.0125 12.565 16.0125Z" fill="white"/>
<path d="M13.0288 19.9064H7.75253C4.62003 19.9064 3.92003 18.0427 3.64878 16.4239L2.41503 8.85515C2.35378 8.4964 2.59878 8.1639 2.95753 8.10265C3.31628 8.0414 3.64878 8.2864 3.71003 8.64515L4.94378 16.2052C5.19753 17.7539 5.72253 18.5939 7.75253 18.5939H13.0288C15.2775 18.5939 15.5313 17.8064 15.82 16.2839L17.29 8.62765C17.36 8.2689 17.7013 8.03265 18.06 8.1114C18.4188 8.1814 18.6463 8.52265 18.5763 8.8814L17.1063 16.5377C16.765 18.3139 16.1963 19.9064 13.0288 19.9064Z" fill="white"/>
</svg>
